<?xml version="1.0" encoding="UTF-8"?>
<svg xmlns="http://www.w3.org/2000/svg" xmlns:xlink="http://www.w3.org/1999/xlink" width="375pt" height="374.999991pt" viewBox="0 0 375 374.999991" version="1.2">
<g id="surface1">
<path style=" stroke:none;fill-rule:nonzero;fill:rgb(0%,0%,0%);fill-opacity:1;" d="M 187.347656 75.292969 C 180.539062 75.292969 175.019531 80.8125 175.019531 87.617188 L 175.019531 194 L 124.273438 170.0625 C 118.109375 167.152344 110.769531 169.800781 107.867188 175.949219 C 104.964844 182.109375 107.601562 189.453125 113.757812 192.355469 L 182.089844 224.585938 C 182.15625 224.625 182.230469 224.628906 182.300781 224.65625 C 182.886719 224.921875 183.507812 225.109375 184.136719 225.285156 C 184.355469 225.34375 184.5625 225.433594 184.777344 225.480469 C 185.460938 225.625 186.164062 225.679688 186.878906 225.707031 C 187.035156 225.714844 187.1875 225.761719 187.339844 225.761719 C 188.085938 225.761719 188.820312 225.667969 189.550781 225.535156 C 189.753906 225.5 189.957031 225.460938 190.160156 225.410156 C 190.730469 225.277344 191.273438 225.101562 191.816406 224.890625 C 191.957031 224.835938 192.105469 224.804688 192.242188 224.738281 C 192.882812 224.460938 193.496094 224.121094 194.089844 223.738281 C 194.238281 223.644531 194.371094 223.535156 194.515625 223.429688 C 194.972656 223.105469 195.40625 222.746094 195.816406 222.351562 C 195.953125 222.222656 196.085938 222.105469 196.214844 221.972656 C 196.675781 221.488281 197.121094 220.96875 197.511719 220.398438 C 197.539062 220.363281 197.5625 220.335938 197.578125 220.308594 C 197.921875 219.796875 198.234375 219.257812 198.503906 218.6875 C 198.539062 218.621094 198.550781 218.542969 198.578125 218.46875 C 198.765625 218.0625 198.894531 217.628906 199.027344 217.195312 C 199.144531 216.835938 199.28125 216.484375 199.355469 216.117188 C 199.433594 215.773438 199.457031 215.410156 199.507812 215.058594 C 199.574219 214.589844 199.644531 214.121094 199.652344 213.65625 C 199.652344 213.582031 199.675781 213.507812 199.675781 213.433594 L 199.675781 87.617188 C 199.671875 80.8125 194.152344 75.292969 187.347656 75.292969 Z M 187.347656 75.292969 "/>
<path style=" stroke:none;fill-rule:nonzero;fill:rgb(0%,0%,0%);fill-opacity:1;" d="M 187.34375 -0.105469 C 83.984375 -0.105469 -0.105469 83.984375 -0.105469 187.347656 C -0.105469 290.707031 83.984375 374.796875 187.34375 374.796875 C 290.707031 374.796875 374.796875 290.707031 374.796875 187.347656 C 374.796875 83.984375 290.707031 -0.105469 187.34375 -0.105469 Z M 187.34375 356.308594 C 94.179688 356.308594 18.382812 280.507812 18.382812 187.347656 C 18.382812 94.179688 94.179688 18.382812 187.34375 18.382812 C 280.507812 18.382812 356.308594 94.179688 356.308594 187.347656 C 356.308594 280.507812 280.507812 356.308594 187.34375 356.308594 Z M 187.34375 356.308594 "/>
</g>
</svg>
