<?xml version="1.0" encoding="utf-8"?>
<!-- Generator: Adobe Illustrator 25.2.0, SVG Export Plug-In . SVG Version: 6.00 Build 0)  -->
<svg version="1.1" xmlns="http://www.w3.org/2000/svg" xmlns:xlink="http://www.w3.org/1999/xlink" x="0px" y="0px"
	 viewBox="0 0 495 261" style="enable-background:new 0 0 495 261;" xml:space="preserve">
<style type="text/css">
	.st0{display:none;}
	.st1{display:inline;fill:#5C5C5C;stroke:#000000;stroke-miterlimit:10;}
	.st2{fill:#F05325;}
	.st3{fill:#6D1110;}
</style>
<g id="Layer_2" class="st0">
	<rect x="-12" y="-19.5" class="st1" width="514" height="293"/>
</g>
<g id="Logo">
	<g>
		<g>
			<g>
				<circle class="st2" cx="364.61" cy="70.22" r="2.08"/>
				<circle class="st2" cx="374.8" cy="70.22" r="2.08"/>
				<circle class="st2" cx="354.42" cy="70.22" r="2.08"/>
			</g>
			<g>
				<path class="st2" d="M204.13,41.13v-6.17c0-0.29,0.23-0.52,0.52-0.52h24.05c0.29,0,0.52,0.23,0.52,0.52v6.17
					c0,0.29-0.23,0.52-0.52,0.52h-8.19v30.34c0,0.29-0.23,0.52-0.52,0.52h-6.63c-0.29,0-0.52-0.23-0.52-0.52V41.65h-8.19
					C204.36,41.65,204.13,41.42,204.13,41.13z"/>
				<path class="st2" d="M253.04,34.96c0-0.29,0.23-0.52,0.52-0.52h6.57c0.29,0,0.52,0.23,0.52,0.52v37.03
					c0,0.29-0.23,0.52-0.52,0.52h-6.57c-0.29,0-0.52-0.23-0.52-0.52V56.65h-9.34v15.34c0,0.29-0.23,0.52-0.52,0.52h-6.58
					c-0.29,0-0.46-0.23-0.46-0.52V34.96c0-0.29,0.17-0.52,0.46-0.52h6.58c0.29,0,0.52,0.23,0.52,0.52v14.48h9.34V34.96z"/>
				<path class="st2" d="M270.28,71.99V34.96c0-0.29,0.17-0.52,0.46-0.52h19.61c0.29,0,0.52,0.23,0.52,0.52v6.17
					c0,0.29-0.23,0.52-0.52,0.52h-12.46v7.84h9.69c0.29,0,0.46,0.23,0.46,0.52v6.29c0,0.29-0.17,0.52-0.46,0.52h-9.69v8.48h12.46
					c0.29,0,0.52,0.23,0.52,0.52v6.17c0,0.29-0.23,0.52-0.52,0.52h-19.61C270.46,72.51,270.28,72.28,270.28,71.99z"/>
			</g>
			<g>
				<path class="st3" d="M303.73,58.9h2.38c0.1,0,0.16,0.08,0.16,0.18V72.1c0,0.1-0.06,0.18-0.16,0.18h-2.32
					c-0.1,0-0.18-0.08-0.18-0.18v-9.87l-1.26,1.34c-0.1,0.1-0.3,0.04-0.3-0.12v-2.27c0-0.06,0.02-0.08,0.02-0.1l1.46-2.07
					C303.61,58.9,303.69,58.9,303.73,58.9z"/>
				<path class="st3" d="M314.41,68.49c0.1-0.06,0.14-0.06,0.22,0.06l0.22,0.39c0.22,0.41,0.57,0.79,1.58,0.79
					c1.12,0,1.66-0.69,1.79-1.91c-0.61,0.16-1.28,0.26-1.99,0.26c-1.16,0-2.27-0.37-3.19-1.18c-0.83-0.79-1.28-1.93-1.28-3.27v-0.49
					c0-2.56,1.85-4.45,4.59-4.45h0.12c2.84,0,4.57,1.62,4.57,4.61v4.93c0,2.52-1.71,4.24-4.61,4.24c-1.73,0-3.65-0.89-4.41-2.66
					c-0.04-0.1-0.02-0.18,0.08-0.22L314.41,68.49z M318.37,63.41c0-1.08-0.75-1.97-1.93-1.97c-1.08,0-1.99,0.81-1.99,1.97
					c0,1.08,0.79,1.97,1.95,1.97C317.5,65.38,318.37,64.55,318.37,63.41z"/>
				<path class="st3" d="M334.61,67.49v0.35c0,2.44-1.62,4.67-4.3,4.67c-2.01,0-3.45-0.85-4.14-2.88c-0.04-0.16-0.04-0.22,0.02-0.28
					l2.03-1.36c0.1-0.08,0.24-0.04,0.26,0.06l0.08,0.28c0.2,0.79,0.73,1.44,1.64,1.44c1.14,0,1.5-0.91,1.5-2.05
					c0-1.12-0.57-1.93-1.81-1.93c-0.93,0-2.11,0.28-3.07,0.49c-0.14,0.02-0.2-0.06-0.2-0.16v-7.05c0-0.1,0.06-0.18,0.14-0.18h6.52
					c0.1,0,0.18,0.08,0.18,0.18v2.17c0,0.1-0.08,0.18-0.18,0.18h-3.98v1.95c0.41-0.02,0.81-0.04,1.18-0.04
					C333.15,63.33,334.7,64.75,334.61,67.49z"/>
				<path class="st3" d="M339.73,61.24v-2.17c0-0.1,0.06-0.18,0.16-0.18h6.9c0.1,0,0.18,0.08,0.18,0.18c0,2.17,0,2.33,0,2.35
					l-4.28,10.76c-0.02,0.06-0.1,0.1-0.16,0.1h-2.58c-0.12,0-0.2-0.12-0.16-0.22l4.24-10.64h-4.14
					C339.8,61.42,339.73,61.34,339.73,61.24z"/>
			</g>
			<g>
				<g>
					<circle class="st2" cx="134.42" cy="70.22" r="2.08"/>
					<circle class="st2" cx="144.61" cy="70.22" r="2.08"/>
					<circle class="st2" cx="124.23" cy="70.22" r="2.08"/>
				</g>
				<path class="st3" d="M155.59,72.12V59.09c0-0.1,0.06-0.18,0.16-0.18h6.9c0.1,0,0.18,0.08,0.18,0.18v2.17
					c0,0.1-0.08,0.18-0.18,0.18h-4.38v2.76h3.41c0.1,0,0.16,0.08,0.16,0.18v2.21c0,0.1-0.06,0.18-0.16,0.18h-3.41v2.99h4.38
					c0.1,0,0.18,0.08,0.18,0.18v2.17c0,0.1-0.08,0.18-0.18,0.18h-6.9C155.65,72.3,155.59,72.22,155.59,72.12z"/>
				<path class="st3" d="M176.42,68.06c0,0.61-0.1,1.79-0.77,2.78c-0.75,1.12-1.93,1.66-3.55,1.66c-1.73,0-3.74-0.83-4.37-2.72
					c-0.02-0.06,0-0.12,0.06-0.16l1.87-1.6c0.08-0.06,0.2-0.06,0.26,0.04c0.04,0.1,0.12,0.26,0.22,0.47
					c0.3,0.63,1.04,1.26,1.85,1.26c0.63,0,1.48-0.35,1.48-1.32c0-0.93-1.28-1.46-2.07-1.77c-0.91-0.37-1.85-0.83-2.64-1.52
					c-0.83-0.77-1.24-1.62-1.24-2.64c0-2.54,2.34-3.82,4.55-3.82c1.75,0,3.05,0.91,3.9,2.72c0.04,0.08,0,0.18-0.06,0.22l-1.81,1.26
					c-0.08,0.04-0.12,0.04-0.2-0.06c-0.69-0.99-1.3-1.46-2.11-1.46c-0.43,0-1.42,0.16-1.42,0.91c0,0.91,1.69,1.38,2.5,1.77
					C174.41,64.81,176.42,65.97,176.42,68.06z"/>
				<path class="st3" d="M180.53,61.26v-2.17c0-0.1,0.08-0.18,0.18-0.18h8.47c0.1,0,0.18,0.08,0.18,0.18v2.17
					c0,0.1-0.08,0.18-0.18,0.18h-2.88v10.68c0,0.1-0.08,0.18-0.18,0.18h-2.33c-0.1,0-0.18-0.08-0.18-0.18V61.44h-2.88
					C180.61,61.44,180.53,61.36,180.53,61.26z"/>
				<path class="st3" d="M199.84,59.76L199.84,59.76c-0.52-0.57-1.29-0.86-2.3-0.86h-3.45c-0.21,0-0.36,0.17-0.36,0.38v8.85
					c0,0.21,0.16,0.38,0.36,0.38h3.45c1.87,0,2.99-1.11,2.99-2.97v-3.65C200.53,60.99,200.29,60.25,199.84,59.76z M196.06,61.14
					h0.99c0.77,0,1.16,0.39,1.16,1.16v2.83c0,0.7-0.46,1.15-1.16,1.15h-0.99V61.14z"/>
			</g>
			<path class="st2" d="M41.36,86.68c0-0.41,0.33-0.73,0.73-0.73h9.28c0.41,0,0.73,0.33,0.73,0.73v52.28c0,0.41-0.33,0.73-0.73,0.73
				h-9.28c-0.41,0-0.73-0.33-0.73-0.73V117.3H28.17v21.66c0,0.41-0.33,0.73-0.73,0.73h-9.28c-0.41,0-0.65-0.33-0.65-0.73V86.68
				c0-0.41,0.24-0.73,0.65-0.73h9.28c0.41,0,0.73,0.33,0.73,0.73v20.44h13.19V86.68z"/>
			<path class="st2" d="M98.37,90.1c2.44,2.69,3.58,6.52,3.58,11.97v21.42c0,5.62-1.14,9.53-3.58,12.13
				c-3.18,3.26-7.98,4.89-14.98,4.89c-7.25,0-11.97-1.63-15.07-4.89c-2.36-2.61-3.66-6.52-3.66-12.13v-21.42
				c0-5.46,1.22-9.37,3.66-12.05c3.09-3.34,7.98-4.8,15.07-4.8C90.39,85.21,95.27,86.76,98.37,90.1z M91.12,104.76
				c0-7.17-3.83-8.63-7.33-8.63h-0.98c-5.21,0-7.25,3.34-7.25,8.63v16.29c0,7.17,3.83,8.71,7.25,8.71h0.98
				c5.21,0,7.25-3.5,7.33-8.71V104.76z"/>
			<path class="st2" d="M137.54,85.95h9.37c0.41,0,0.73,0.33,0.73,0.73v52.28c0,0.41-0.33,0.73-0.73,0.73h-9.04
				c-0.33,0-0.65-0.16-0.73-0.41l-11.89-26.79v26.47c0,0.41-0.33,0.73-0.73,0.73h-9.28c-0.41,0-0.65-0.33-0.65-0.73V86.68
				c0-0.41,0.24-0.73,0.65-0.73h9.61c0.32,0,0.49,0.24,0.57,0.41l11.4,26.3V86.68C136.81,86.27,137.14,85.95,137.54,85.95z"/>
			<path class="st2" d="M292.06,107.85c3.1,2.93,4.4,7.66,4.4,14.25c0,7-1.47,11.97-4.81,14.58c-3.18,2.52-7.65,3.01-12.13,3.01
				h-15.88c-0.41,0-0.65-0.33-0.65-0.73V86.68c0-0.41,0.24-0.73,0.65-0.73h13.03c4.4,0,8.96,0.33,12.05,2.36
				c3.83,2.44,4.97,6.84,4.97,11.56C293.69,103.05,293.2,105.82,292.06,107.85z M273.74,103.94h4.97c2.61,0,3.99-0.81,3.99-3.66
				s-2.12-3.66-5.7-3.66h-3.26V103.94z M285.55,121.86c0-3.91-2.77-7-6.92-7c-0.57,0-1.22,0-4.89,0v14.17h3.1
				C281.31,129.03,285.55,128.21,285.55,121.86z"/>
			<path class="st2" d="M318.94,85.95h10.1c0.32,0,0.49,0.24,0.57,0.49l14.09,52.36c0.08,0.49-0.24,0.9-0.73,0.9h-9.28
				c-0.24,0-0.49-0.16-0.57-0.49l-3.18-11.4h-11.89l-3.09,11.4c-0.08,0.33-0.24,0.49-0.57,0.49h-9.36c-0.49,0-0.81-0.41-0.73-0.9
				l14.09-52.36C318.45,86.19,318.61,85.95,318.94,85.95z M327.41,117.71l-3.5-12.3l-3.26,12.3H327.41z"/>
			<path class="st2" d="M388.24,87.09l-12.79,17.67l13.52,34.04c0.16,0.41-0.08,0.9-0.65,0.9h-10.99c-0.24,0-0.49-0.16-0.57-0.49
				l-8.47-24.35l-4.15,5.7v18.41c0,0.41-0.33,0.73-0.73,0.73h-9.28c-0.41,0-0.65-0.33-0.65-0.73V86.68c0-0.41,0.24-0.73,0.65-0.73
				h9.28c0.41,0,0.73,0.33,0.73,0.73v16.86l12.79-17.27c0.24-0.33,0.33-0.33,0.65-0.33h10.1C388.24,85.95,388.57,86.6,388.24,87.09z
				"/>
			<path class="st2" d="M399.16,138.96V86.68c0-0.41,0.24-0.73,0.65-0.73h27.69c0.41,0,0.73,0.33,0.73,0.73v8.71
				c0,0.41-0.32,0.73-0.73,0.73h-17.59v11.08h13.68c0.41,0,0.65,0.33,0.65,0.73v8.88c0,0.41-0.24,0.73-0.65,0.73h-13.68v11.97h17.59
				c0.41,0,0.73,0.33,0.73,0.73v8.71c0,0.41-0.32,0.73-0.73,0.73h-27.69C399.4,139.7,399.16,139.37,399.16,138.96z"/>
			<path class="st2" d="M473.84,90.51c2.44,2.69,3.66,6.68,3.66,11.56v21.58c0,9.85-5.7,16.04-16.12,16.04h-20.36
				c-0.41,0-0.65-0.33-0.65-0.73V86.68c0-0.41,0.24-0.73,0.65-0.73h20.36C466.91,85.95,471.07,87.49,473.84,90.51z M466.83,104.51
				c0-5.13-2.69-8.39-8.39-8.39h-7.33v33.39h7.33c4.89,0,8.39-3.18,8.39-8.31V104.51z"/>
			<path class="st2" d="M161.98,139.7h12.32l6-10.18h-8.22v-11.97h13.68c0.41,0,0.65-0.33,0.65-0.73v-8.88
				c0-0.41-0.25-0.73-0.65-0.73h-13.68V96.13h17.59c0.41,0,0.73-0.33,0.73-0.73v-8.71c0-0.41-0.32-0.73-0.73-0.73h-27.69
				c-0.41,0-0.65,0.33-0.65,0.73v52.28C161.32,139.37,161.57,139.7,161.98,139.7z"/>
			<path class="st2" d="M210.35,114.29v24.68c0,0.41,0.33,0.73,0.57,0.73h6.92l3.42-5.8v-19.61l11.81-27.45
				c0.16-0.41-0.16-0.9-0.65-0.9h-9.12c-0.33,0-0.41,0-0.65,0.41l-6.92,13.68l-7.09-13.68c-0.24-0.41-0.33-0.41-0.65-0.41h-9.12
				c-0.57,0-0.81,0.49-0.65,1.06L210.35,114.29z"/>
			<path class="st3" d="M224.76,170.21c-8.53,12.9-11.44,21.09-4.15,28.5c7.41,7.4,14.7,2.47,21.09-4.94
				c0.11,2.81,1.01,5.27,3.48,7.07c3.15,2.28,8.13,2.27,13.85-1.43c1.34,1.27,3.33,2.31,4.99,2.67c0.9,0.22,1.79,0.22,2.58-0.34
				c7.52-5.84,17.06-15.15,27.27-25.36c-3.48,6.62-6.96,13.35-8.08,16.27c-1.35,3.59,1.12,5.83,2.92,7.07
				c1.68,1.12,3.14,0.9,4.38-0.11c5.16-4.49,15.82-13.8,25.7-23.23c-0.56,1.01-1.12,2.13-1.68,3.14
				c-2.36,4.38-4.71,11.33-3.48,15.37c3.25,10.77,19.08,11.56,33.1-9.31c3.81-5.72-1.01-11.89-2.58-9.54
				c-10.1,14.7-21.77,21.99-22.89,20.87c-1.12-1.01,0.34-4.04,1.91-7.4c3.81-8.08,13.91-21.66,19.19-29.4
				c3.03-4.26-6.4-8.53-8.3-6.51c-8.3,8.86-22.33,22.1-34.22,32.88c5.72-9.87,11.89-20.08,13.35-22.44
				c1.01-1.79,0.78-3.81-3.14-6.51c-1.57-1.01-3.59-0.22-5.83,1.8c-5.95,5.16-18.85,17.73-28.05,26.37
				c4.49-7.52,10.21-17.17,13.02-22.67c2.69-5.5-4.38-12.23-6.51-9.09c-1.42,2.1-8.09,13.16-14.2,23.45
				c-5.96,8.33-17.28,21.05-20.13,19.07c-3.25-2.24,1.35-10.66,5.27-16.72c3.37-5.39,6.96-9.87,7.97-11.22
				c1.01-1.46-2.13-4.83-5.16-5.95c-0.11-3.03-3.48-4.38-5.61-5.95c-3.59-2.81-6.28-3.37-10.32-1.35
				C235.64,157.75,229.24,163.36,224.76,170.21z M248.66,162.69c1.68,1.57-2.92,9.99-5.95,14.7l-2.02,2.92
				c-11.22,14.02-16.83,16.72-17.84,15.37c-1.23-1.68,3.59-10.32,8.3-17.17C238.22,168.08,246.75,161.12,248.66,162.69z"/>
			<path class="st3" d="M174.55,217.94c-2.69,5.5,4.38,12.23,6.51,9.09c0.75-1.11,5.66-9.25,12.31-20.36
				c-2.59-2.57-5.08-5.23-7.47-7.97L174.55,217.94z"/>
			<path class="st3" d="M360.36,186.55c-13.17,29.78-46.03,40.04-78.64,40.18c-47,0.19-68.44-15.17-82.3-30.17
				c16.08-26.93,37.07-62.32,38.62-65.27c1.23-2.47-3.14-5.61-6.28-6.28c-0.9-0.22-2.06-0.68-3.87,2.47l-35.73,60.61
				c-0.8-0.99-1.59-1.96-2.36-2.91c-5.25-6.49-9.8-13.76-15.05-20.32c10.21-17.2,18.78-31.72,19.75-33.57
				c1.23-2.47-3.14-5.61-6.28-6.28c-0.9-0.22-2.06-0.68-3.87,2.47l-17.29,29.33c-5.27-3.96-11.69-5.47-18.33-3.18
				c-8.41,2.9-14.47,10.94-14.72,19.85c-0.24,8.53,4.18,16.19,10.6,21.42L131,217.94c-2.69,5.5,4.38,12.23,6.51,9.09
				c1.4-2.07,17.33-28.69,32-53.37c11.13,15.18,22.46,30.49,37.78,41.73c15.68,11.5,34.77,17.01,53.93,18.9
				c20.25,2,41.94,0.62,61.26-6.05c19.41-6.7,31.93-16.43,41.18-35.09C366.31,187.81,362.78,181.07,360.36,186.55z M146.84,191.08
				c-4.86-3.86-8.16-9.75-7.59-16.11c0.55-6.06,5.01-11.29,10.86-12.91c4.55-1.26,8.79-0.02,12.19,2.79L146.84,191.08z"/>
			<g>
				<path class="st2" d="M368.62,171.79c-0.6-0.6-1.59-0.62-2.21-0.07c-1.43,1.16-2.99,1.74-4.64,1.74c-3.77,0-6.72-3.06-6.72-6.96
					c0-3.94,2.94-7.03,6.69-7.03c1.67,0,3.36,0.65,4.6,1.74c0.34,0.34,0.75,0.51,1.21,0.5c0.43-0.01,0.83-0.21,1.1-0.51l2.09-2.16
					c0.33-0.33,0.51-0.77,0.5-1.23c-0.01-0.46-0.22-0.89-0.57-1.21c-2.67-2.4-5.46-3.47-9.03-3.47c-7.43,0-13.47,6.04-13.47,13.47
					c0,7.39,6.04,13.4,13.47,13.4c3.5,0,6.64-1.26,9.1-3.65c0.33-0.33,0.52-0.81,0.51-1.29c-0.01-0.44-0.2-0.84-0.46-1.07
					L368.62,171.79z"/>
				<path class="st2" d="M388.55,153.13c-7.39,0-13.4,6.04-13.4,13.47c0,7.52,5.89,13.4,13.4,13.4c7.41,0,13.44-6.01,13.44-13.4
					C401.99,159.18,395.96,153.13,388.55,153.13z M388.55,173.49c-3.8,0-6.89-3.09-6.89-6.89c0-3.84,3.09-6.96,6.89-6.96
					c3.75,0,6.93,3.19,6.93,6.96C395.48,170.4,392.37,173.49,388.55,173.49z"/>
			</g>
		</g>
		<g>
			<path class="st3" d="M372.25,184.64v0.61h-1.19v3.09h-0.74v-3.09h-1.19v-0.61H372.25z M376.25,188.35l-0.14-2.18
				c-0.01-0.29-0.01-0.64-0.03-1.03h-0.04c-0.1,0.33-0.2,0.76-0.31,1.1l-0.67,2.06h-0.76l-0.67-2.11c-0.07-0.29-0.18-0.72-0.26-1.05
				h-0.04c0,0.34-0.01,0.69-0.03,1.03l-0.14,2.18h-0.71l0.27-3.71h1.1l0.64,1.81c0.08,0.29,0.15,0.56,0.25,0.94h0.01
				c0.1-0.34,0.18-0.65,0.26-0.93l0.64-1.83h1.06l0.29,3.71H376.25z"/>
		</g>
	</g>
</g>
</svg>
