<?xml version="1.0" encoding="UTF-8"?>
<svg xmlns="http://www.w3.org/2000/svg" xmlns:xlink="http://www.w3.org/1999/xlink" width="375pt" height="374.999991pt" viewBox="0 0 375 374.999991" version="1.2">
<g id="surface1">
<path style=" stroke:none;fill-rule:nonzero;fill:rgb(22.349548%,20.779419%,21.179199%);fill-opacity:1;" d="M 231.945312 72.039062 L 228.074219 70.738281 L 183.183594 205.082031 L 187.058594 206.378906 L 231.945312 72.039062 "/>
<path style=" stroke:none;fill-rule:nonzero;fill:rgb(22.349548%,20.779419%,21.179199%);fill-opacity:1;" d="M 231.945312 72.039062 L 232.8125 69.453125 L 228.945312 68.152344 C 228.261719 67.925781 227.503906 67.980469 226.859375 68.300781 C 226.214844 68.621094 225.71875 69.195312 225.488281 69.878906 L 180.597656 204.21875 C 180.117188 205.648438 180.890625 207.191406 182.316406 207.667969 L 186.191406 208.964844 C 186.882812 209.195312 187.621094 209.144531 188.273438 208.820312 C 188.925781 208.492188 189.410156 207.933594 189.644531 207.242188 L 234.53125 72.898438 C 235.007812 71.472656 234.242188 69.929688 232.8125 69.453125 L 231.945312 72.039062 L 229.359375 71.175781 L 185.332031 202.925781 L 184.046875 202.496094 L 183.183594 205.082031 L 185.769531 205.945312 L 229.796875 74.191406 L 231.078125 74.621094 L 231.945312 72.039062 L 229.359375 71.175781 L 231.945312 72.039062 "/>
<path style=" stroke:none;fill-rule:nonzero;fill:rgb(22.349548%,20.779419%,21.179199%);fill-opacity:1;" d="M 126.636719 138.78125 C 126.636719 138.78125 121.472656 134.144531 118.75 138.136719 C 116.023438 142.136719 122.21875 145.246094 122.21875 145.246094 L 197.105469 196.449219 L 201.519531 189.976562 L 126.636719 138.78125 "/>
<path style=" stroke:none;fill-rule:nonzero;fill:rgb(22.349548%,20.779419%,21.179199%);fill-opacity:1;" d="M 126.636719 138.78125 L 128.457031 136.75 C 128.371094 136.675781 127.636719 136.015625 126.476562 135.3125 C 125.898438 134.964844 125.207031 134.601562 124.410156 134.308594 C 123.613281 134.015625 122.699219 133.792969 121.664062 133.785156 C 120.78125 133.78125 119.789062 133.96875 118.867188 134.453125 C 117.941406 134.925781 117.117188 135.679688 116.496094 136.605469 L 116.496094 136.601562 C 115.738281 137.695312 115.320312 138.976562 115.328125 140.203125 C 115.328125 141.589844 115.824219 142.785156 116.40625 143.699219 C 117.300781 145.085938 118.417969 145.996094 119.3125 146.648438 C 120.210938 147.289062 120.90625 147.644531 120.992188 147.683594 L 122.21875 145.246094 L 120.679688 147.503906 L 195.570312 198.703125 C 196.167969 199.109375 196.894531 199.265625 197.609375 199.132812 C 198.332031 198.996094 198.949219 198.585938 199.363281 197.984375 L 203.773438 191.515625 C 204.621094 190.265625 204.300781 188.574219 203.0625 187.726562 L 128.175781 136.527344 L 126.636719 138.78125 L 128.457031 136.75 L 126.636719 138.78125 L 125.09375 141.03125 L 197.734375 190.691406 L 196.390625 192.652344 L 123.757812 142.996094 C 123.664062 142.933594 123.546875 142.863281 123.449219 142.8125 L 123.441406 142.8125 C 123.335938 142.757812 122.46875 142.273438 121.773438 141.636719 C 121.425781 141.328125 121.132812 140.984375 120.972656 140.710938 C 120.808594 140.4375 120.785156 140.28125 120.785156 140.203125 C 120.792969 140.121094 120.78125 140.023438 121.003906 139.675781 L 121.003906 139.671875 C 121.203125 139.390625 121.308594 139.335938 121.371094 139.296875 C 121.4375 139.269531 121.496094 139.246094 121.664062 139.242188 C 121.851562 139.238281 122.171875 139.292969 122.535156 139.429688 C 123.085938 139.625 123.703125 139.992188 124.144531 140.304688 C 124.371094 140.457031 124.550781 140.597656 124.671875 140.691406 L 124.792969 140.796875 L 124.820312 140.816406 L 125.371094 140.183594 L 124.8125 140.8125 L 124.820312 140.816406 L 125.371094 140.183594 L 124.8125 140.8125 L 125.09375 141.03125 L 126.636719 138.78125 "/>
<path style=" stroke:none;fill-rule:nonzero;fill:rgb(22.349548%,20.779419%,21.179199%);fill-opacity:1;" d="M 56.867188 107.085938 C 12.496094 179.148438 35.019531 273.875 107.085938 318.242188 C 179.148438 362.613281 273.871094 340.085938 318.242188 268.023438 C 362.613281 195.964844 340.078125 101.238281 268.023438 56.867188 C 195.960938 12.496094 101.234375 35.023438 56.867188 107.085938 Z M 327.53125 273.746094 C 280.007812 350.929688 178.546875 375.058594 101.367188 327.53125 C 24.175781 280.007812 0.0507812 178.550781 47.570312 101.367188 C 95.097656 24.179688 196.558594 0.0507812 273.742188 47.578125 C 350.925781 95.101562 375.054688 196.5625 327.53125 273.746094 "/>
<path style=" stroke:none;fill-rule:nonzero;fill:rgb(22.349548%,20.779419%,21.179199%);fill-opacity:1;" d="M 56.867188 107.085938 L 56.402344 106.800781 C 40.933594 131.910156 33.570312 159.773438 33.570312 187.300781 C 33.566406 239.046875 59.59375 289.640625 106.796875 318.707031 C 131.910156 334.167969 159.769531 341.539062 187.300781 341.539062 C 239.046875 341.539062 289.640625 315.507812 318.703125 268.308594 C 334.167969 243.195312 341.53125 215.335938 341.53125 187.804688 C 341.53125 136.0625 315.507812 85.464844 268.308594 56.402344 C 243.195312 40.941406 215.335938 33.570312 187.804688 33.570312 C 136.058594 33.570312 85.464844 59.59375 56.402344 106.800781 L 56.867188 107.085938 L 57.328125 107.371094 C 86.183594 60.503906 136.421875 34.660156 187.804688 34.660156 C 215.140625 34.660156 242.796875 41.976562 267.738281 57.332031 C 314.601562 86.1875 340.441406 136.425781 340.441406 187.804688 C 340.441406 215.140625 333.128906 242.800781 317.773438 267.738281 C 288.914062 314.601562 238.683594 340.445312 187.300781 340.445312 C 159.964844 340.445312 132.308594 333.132812 107.367188 317.777344 C 60.496094 288.917969 34.660156 238.683594 34.660156 187.300781 C 34.660156 159.96875 41.976562 132.308594 57.328125 107.371094 Z M 327.53125 273.746094 L 327.066406 273.460938 C 296.148438 323.671875 242.332031 351.351562 187.285156 351.351562 C 157.996094 351.351562 128.367188 343.515625 101.648438 327.066406 C 51.4375 296.152344 23.75 242.332031 23.75 187.285156 C 23.75 158 31.589844 128.367188 48.035156 101.652344 C 78.957031 51.441406 132.773438 23.753906 187.820312 23.753906 C 217.109375 23.753906 246.738281 31.589844 273.457031 48.039062 C 323.667969 78.957031 351.347656 132.777344 351.351562 187.820312 C 351.351562 217.109375 343.515625 246.738281 327.066406 273.460938 L 327.53125 273.746094 L 327.992188 274.027344 C 344.550781 247.140625 352.445312 217.300781 352.445312 187.820312 C 352.445312 132.414062 324.574219 78.238281 274.027344 47.117188 C 247.132812 30.554688 217.300781 22.664062 187.820312 22.664062 C 132.410156 22.664062 78.230469 50.535156 47.109375 101.082031 C 30.550781 127.96875 22.660156 157.804688 22.660156 187.285156 C 22.660156 242.695312 50.527344 296.871094 101.078125 327.996094 C 127.96875 344.554688 157.800781 352.445312 187.285156 352.445312 C 242.695312 352.445312 296.871094 324.574219 327.992188 274.027344 L 327.53125 273.746094 "/>
<path style=" stroke:none;fill-rule:nonzero;fill:rgb(22.349548%,20.779419%,21.179199%);fill-opacity:1;" d="M 47.570312 101.367188 C 47.101562 102.132812 56.394531 107.851562 56.867188 107.085938 C 101.234375 35.023438 195.960938 12.496094 268.023438 56.867188 C 340.078125 101.238281 362.613281 195.964844 318.242188 268.023438 C 317.769531 268.789062 327.058594 274.511719 327.53125 273.746094 C 375.054688 196.5625 350.925781 95.101562 273.742188 47.578125 C 196.558594 0.0507812 95.097656 24.179688 47.570312 101.367188 "/>
<path style=" stroke:none;fill-rule:nonzero;fill:rgb(22.349548%,20.779419%,21.179199%);fill-opacity:1;" d="M 47.570312 101.367188 L 47.109375 101.078125 C 47.042969 101.183594 47.007812 101.3125 47.007812 101.429688 C 47.015625 101.679688 47.105469 101.816406 47.1875 101.949219 C 47.351562 102.1875 47.574219 102.40625 47.867188 102.660156 C 48.875 103.539062 50.710938 104.765625 52.46875 105.796875 C 53.347656 106.3125 54.199219 106.773438 54.914062 107.117188 C 55.273438 107.285156 55.601562 107.425781 55.886719 107.527344 C 56.175781 107.628906 56.410156 107.695312 56.675781 107.699219 C 56.765625 107.699219 56.863281 107.691406 56.976562 107.648438 C 57.09375 107.609375 57.230469 107.523438 57.320312 107.382812 L 57.328125 107.371094 C 86.1875 60.503906 136.421875 34.660156 187.804688 34.660156 C 215.140625 34.660156 242.796875 41.976562 267.738281 57.332031 C 314.601562 86.1875 340.441406 136.425781 340.441406 187.804688 C 340.441406 215.140625 333.128906 242.796875 317.773438 267.738281 L 317.777344 267.734375 C 317.707031 267.839844 317.675781 267.96875 317.675781 268.085938 C 317.683594 268.335938 317.773438 268.472656 317.855469 268.605469 C 318.015625 268.84375 318.242188 269.0625 318.53125 269.316406 C 319.542969 270.199219 321.378906 271.421875 323.132812 272.453125 C 324.011719 272.96875 324.863281 273.433594 325.582031 273.777344 C 325.941406 273.941406 326.265625 274.082031 326.550781 274.183594 C 326.84375 274.285156 327.078125 274.355469 327.339844 274.359375 C 327.429688 274.355469 327.53125 274.347656 327.648438 274.308594 C 327.757812 274.269531 327.894531 274.179688 327.984375 274.042969 L 327.992188 274.027344 C 344.554688 247.140625 352.445312 217.304688 352.445312 187.820312 C 352.445312 132.410156 324.574219 78.230469 274.027344 47.117188 C 247.132812 30.554688 217.300781 22.664062 187.820312 22.664062 C 132.410156 22.664062 78.230469 50.535156 47.109375 101.082031 L 47.109375 101.078125 L 47.570312 101.367188 L 48.035156 101.652344 C 78.953125 51.4375 132.773438 23.753906 187.820312 23.753906 C 217.109375 23.753906 246.738281 31.589844 273.457031 48.039062 C 323.667969 78.957031 351.351562 132.773438 351.351562 187.820312 C 351.351562 217.109375 343.515625 246.742188 327.066406 273.460938 L 327.53125 273.746094 L 327.078125 273.4375 L 327.414062 273.664062 L 327.273438 273.28125 L 327.078125 273.4375 L 327.414062 273.664062 L 327.273438 273.28125 L 327.339844 273.472656 L 327.339844 273.269531 L 327.273438 273.28125 L 327.339844 273.472656 L 327.339844 273.269531 C 327.320312 273.273438 327.0625 273.222656 326.753906 273.097656 C 325.628906 272.664062 323.542969 271.488281 321.789062 270.339844 C 320.90625 269.765625 320.101562 269.195312 319.527344 268.734375 C 319.246094 268.503906 319.019531 268.300781 318.886719 268.144531 L 318.753906 267.984375 L 318.75 267.976562 L 318.523438 268.085938 L 318.765625 268.085938 L 318.75 267.976562 L 318.523438 268.085938 L 318.765625 268.085938 L 318.34375 268.085938 L 318.703125 268.3125 L 318.765625 268.085938 L 318.34375 268.085938 L 318.703125 268.3125 L 318.703125 268.308594 C 334.164062 243.195312 341.53125 215.335938 341.53125 187.804688 C 341.53125 136.0625 315.507812 85.464844 268.308594 56.402344 C 243.191406 40.941406 215.332031 33.570312 187.804688 33.570312 C 136.058594 33.570312 85.464844 59.59375 56.402344 106.800781 L 56.867188 107.085938 L 56.410156 106.78125 L 56.746094 107.007812 L 56.605469 106.625 L 56.410156 106.78125 L 56.746094 107.007812 L 56.605469 106.625 L 56.675781 106.8125 L 56.675781 106.609375 L 56.605469 106.625 L 56.675781 106.8125 L 56.675781 106.609375 C 56.652344 106.617188 56.398438 106.5625 56.085938 106.4375 C 54.960938 106.003906 52.878906 104.828125 51.121094 103.679688 C 50.238281 103.109375 49.433594 102.539062 48.863281 102.078125 C 48.578125 101.847656 48.355469 101.640625 48.214844 101.488281 L 48.085938 101.328125 L 48.082031 101.320312 L 47.855469 101.429688 L 48.101562 101.429688 L 48.082031 101.320312 L 47.855469 101.429688 L 48.101562 101.429688 L 47.679688 101.429688 L 48.035156 101.65625 L 48.101562 101.429688 L 47.679688 101.429688 L 48.035156 101.65625 L 48.035156 101.652344 L 47.570312 101.367188 "/>
<path style=" stroke:none;fill-rule:nonzero;fill:rgb(22.349548%,20.779419%,21.179199%);fill-opacity:1;" d="M 189.371094 41.335938 L 185.726562 41.335938 L 185.789062 62.503906 L 189.3125 62.503906 L 189.371094 41.335938 "/>
<path style=" stroke:none;fill-rule:nonzero;fill:rgb(22.349548%,20.779419%,21.179199%);fill-opacity:1;" d="M 189.371094 41.335938 L 189.371094 40.789062 L 185.183594 40.789062 L 185.246094 63.050781 L 189.859375 63.050781 L 189.917969 40.789062 L 189.371094 40.789062 L 189.371094 41.335938 L 188.828125 41.335938 L 188.765625 61.960938 L 186.332031 61.960938 L 186.273438 41.882812 L 189.371094 41.882812 L 189.371094 41.335938 L 188.828125 41.335938 L 189.371094 41.335938 "/>
<path style=" stroke:none;fill-rule:nonzero;fill:rgb(22.349548%,20.779419%,21.179199%);fill-opacity:1;" d="M 189.3125 65.058594 L 185.789062 65.058594 C 184.382812 65.058594 183.238281 63.921875 183.238281 62.515625 L 183.175781 41.34375 C 183.175781 40.667969 183.4375 40.011719 183.921875 39.535156 C 184.398438 39.050781 185.050781 38.78125 185.726562 38.78125 L 189.371094 38.78125 C 190.050781 38.78125 190.699219 39.050781 191.179688 39.535156 C 191.65625 40.011719 191.925781 40.667969 191.925781 41.34375 L 191.863281 62.515625 C 191.859375 63.921875 190.71875 65.058594 189.3125 65.058594 "/>
<path style=" stroke:none;fill-rule:nonzero;fill:rgb(22.349548%,20.779419%,21.179199%);fill-opacity:1;" d="M 189.3125 65.058594 L 189.3125 64.511719 L 185.789062 64.511719 C 184.683594 64.511719 183.785156 63.617188 183.78125 62.507812 L 183.71875 41.339844 C 183.71875 40.800781 183.929688 40.292969 184.304688 39.917969 C 184.683594 39.542969 185.195312 39.328125 185.726562 39.328125 L 189.371094 39.328125 C 189.90625 39.328125 190.417969 39.539062 190.792969 39.917969 C 191.167969 40.292969 191.378906 40.804688 191.378906 41.34375 L 191.320312 62.515625 C 191.316406 63.617188 190.417969 64.511719 189.3125 64.511719 L 189.3125 65.605469 C 191.015625 65.605469 192.40625 64.222656 192.410156 62.515625 L 192.46875 41.34375 C 192.46875 40.519531 192.144531 39.726562 191.5625 39.144531 C 190.984375 38.566406 190.195312 38.238281 189.371094 38.238281 L 185.726562 38.238281 C 184.902344 38.238281 184.113281 38.566406 183.53125 39.144531 C 182.953125 39.726562 182.628906 40.519531 182.628906 41.34375 L 182.691406 62.515625 C 182.699219 64.222656 184.082031 65.605469 185.789062 65.605469 L 189.3125 65.605469 L 189.3125 65.058594 "/>
<path style=" stroke:none;fill-rule:nonzero;fill:rgb(22.349548%,20.779419%,21.179199%);fill-opacity:1;" d="M 189.3125 312.601562 L 185.789062 312.601562 L 185.726562 333.773438 L 189.371094 333.773438 L 189.3125 312.601562 "/>
<path style=" stroke:none;fill-rule:nonzero;fill:rgb(22.349548%,20.779419%,21.179199%);fill-opacity:1;" d="M 189.3125 312.601562 L 189.3125 312.058594 L 185.246094 312.058594 L 185.183594 334.316406 L 189.917969 334.316406 L 189.859375 312.058594 L 189.3125 312.058594 L 189.3125 312.601562 L 188.765625 312.601562 L 188.828125 333.226562 L 186.273438 333.226562 L 186.332031 313.144531 L 189.3125 313.148438 L 189.3125 312.601562 L 188.765625 312.601562 L 189.3125 312.601562 "/>
<path style=" stroke:none;fill-rule:nonzero;fill:rgb(22.349548%,20.779419%,21.179199%);fill-opacity:1;" d="M 189.371094 336.328125 L 185.726562 336.328125 C 185.050781 336.328125 184.398438 336.054688 183.921875 335.578125 C 183.4375 335.097656 183.175781 334.445312 183.175781 333.761719 L 183.238281 312.59375 C 183.238281 311.1875 184.382812 310.046875 185.789062 310.046875 L 189.3125 310.046875 C 190.71875 310.046875 191.859375 311.1875 191.863281 312.59375 L 191.925781 333.769531 C 191.925781 334.445312 191.65625 335.097656 191.179688 335.578125 C 190.699219 336.054688 190.050781 336.328125 189.371094 336.328125 "/>
<path style=" stroke:none;fill-rule:nonzero;fill:rgb(22.349548%,20.779419%,21.179199%);fill-opacity:1;" d="M 189.371094 336.328125 L 189.371094 335.785156 L 185.726562 335.785156 C 185.195312 335.785156 184.683594 335.570312 184.304688 335.191406 C 183.929688 334.816406 183.71875 334.308594 183.71875 333.761719 L 183.78125 312.59375 C 183.785156 311.492188 184.683594 310.589844 185.789062 310.589844 L 189.3125 310.589844 C 190.417969 310.589844 191.316406 311.492188 191.320312 312.597656 L 191.378906 333.769531 C 191.378906 334.304688 191.167969 334.8125 190.792969 335.191406 C 190.417969 335.570312 189.90625 335.785156 189.371094 335.785156 L 189.371094 336.875 C 190.195312 336.875 190.984375 336.542969 191.5625 335.960938 C 192.140625 335.378906 192.46875 334.59375 192.46875 333.769531 L 192.410156 312.59375 C 192.40625 310.886719 191.019531 309.503906 189.3125 309.5 L 185.789062 309.5 C 184.082031 309.503906 182.699219 310.886719 182.691406 312.59375 L 182.628906 333.761719 C 182.628906 334.589844 182.953125 335.382812 183.53125 335.960938 C 184.113281 336.542969 184.902344 336.875 185.726562 336.875 L 189.371094 336.875 L 189.371094 336.328125 "/>
<path style=" stroke:none;fill-rule:nonzero;fill:rgb(22.349548%,20.779419%,21.179199%);fill-opacity:1;" d="M 153.859375 55.253906 L 150.574219 56.132812 L 153.820312 68.402344 L 157.191406 67.5 L 153.859375 55.253906 "/>
<path style=" stroke:none;fill-rule:nonzero;fill:rgb(22.349548%,20.779419%,21.179199%);fill-opacity:1;" d="M 153.859375 55.253906 L 153.714844 54.726562 L 149.910156 55.75 L 153.429688 69.070312 L 157.859375 67.882812 L 154.242188 54.585938 L 153.714844 54.726562 L 153.859375 55.253906 L 153.332031 55.394531 L 156.515625 67.113281 L 154.207031 67.730469 L 151.238281 56.523438 L 154 55.78125 L 153.859375 55.253906 L 153.332031 55.394531 L 153.859375 55.253906 "/>
<path style=" stroke:none;fill-rule:nonzero;fill:rgb(22.349548%,20.779419%,21.179199%);fill-opacity:1;" d="M 221.28125 306.707031 L 217.914062 307.613281 L 221.238281 319.855469 L 224.523438 318.980469 L 221.28125 306.707031 "/>
<path style=" stroke:none;fill-rule:nonzero;fill:rgb(22.349548%,20.779419%,21.179199%);fill-opacity:1;" d="M 221.28125 306.707031 L 221.140625 306.179688 L 217.242188 307.222656 L 220.855469 320.527344 L 225.191406 319.363281 L 221.667969 306.035156 L 221.140625 306.179688 L 221.28125 306.707031 L 220.753906 306.84375 L 223.859375 318.589844 L 221.621094 319.1875 L 218.582031 307.996094 L 221.421875 307.234375 L 221.28125 306.707031 L 220.753906 306.84375 L 221.28125 306.707031 "/>
<path style=" stroke:none;fill-rule:nonzero;fill:rgb(22.349548%,20.779419%,21.179199%);fill-opacity:1;" d="M 120.765625 68.480469 L 117.820312 70.179688 L 127.03125 86.0625 L 129.914062 84.398438 L 120.765625 68.480469 "/>
<path style=" stroke:none;fill-rule:nonzero;fill:rgb(22.349548%,20.779419%,21.179199%);fill-opacity:1;" d="M 120.765625 68.480469 L 120.488281 68.007812 L 117.074219 69.984375 L 126.832031 86.808594 L 130.65625 84.59375 L 120.960938 67.734375 L 120.488281 68.007812 L 120.765625 68.480469 L 120.289062 68.753906 L 129.167969 84.195312 L 127.226562 85.316406 L 118.5625 70.382812 L 121.039062 68.953125 L 120.765625 68.480469 L 120.289062 68.753906 L 120.765625 68.480469 "/>
<path style=" stroke:none;fill-rule:nonzero;fill:rgb(22.349548%,20.779419%,21.179199%);fill-opacity:1;" d="M 119.214844 70.550781 L 127.402344 84.667969 L 128.515625 84.023438 L 120.386719 69.875 Z M 126.65625 87.453125 L 116.417969 69.808594 L 121.140625 67.085938 L 131.300781 84.769531 L 126.65625 87.453125 "/>
<path style=" stroke:none;fill-rule:nonzero;fill:rgb(22.349548%,20.779419%,21.179199%);fill-opacity:1;" d="M 119.214844 70.550781 L 118.742188 70.828125 L 127.203125 85.414062 L 129.261719 84.21875 L 120.585938 69.132812 L 118.46875 70.355469 L 118.742188 70.828125 L 119.214844 70.550781 L 119.488281 71.023438 L 120.1875 70.621094 L 127.773438 83.824219 L 127.597656 83.921875 L 119.6875 70.277344 L 119.214844 70.550781 L 119.488281 71.023438 Z M 126.65625 87.453125 L 127.128906 87.183594 L 117.164062 70.007812 L 120.941406 67.828125 L 130.554688 84.570312 L 126.382812 86.984375 L 126.65625 87.453125 L 127.128906 87.183594 L 126.65625 87.453125 L 126.929688 87.929688 L 132.046875 84.96875 L 121.34375 66.335938 L 115.679688 69.609375 L 126.460938 88.199219 L 126.929688 87.929688 L 126.65625 87.453125 "/>
<path style=" stroke:none;fill-rule:nonzero;fill:rgb(22.349548%,20.779419%,21.179199%);fill-opacity:1;" d="M 248.066406 289.046875 L 245.1875 290.714844 L 254.332031 306.628906 L 257.277344 304.925781 L 248.066406 289.046875 "/>
<path style=" stroke:none;fill-rule:nonzero;fill:rgb(22.349548%,20.779419%,21.179199%);fill-opacity:1;" d="M 248.066406 289.046875 L 247.796875 288.574219 L 244.441406 290.511719 L 254.132812 307.375 L 258.023438 305.121094 L 248.265625 288.300781 L 247.796875 288.574219 L 248.066406 289.046875 L 247.59375 289.320312 L 256.53125 304.726562 L 254.535156 305.882812 L 245.929688 290.910156 L 248.339844 289.519531 L 248.066406 289.046875 L 247.59375 289.320312 L 248.066406 289.046875 "/>
<path style=" stroke:none;fill-rule:nonzero;fill:rgb(22.349548%,20.779419%,21.179199%);fill-opacity:1;" d="M 246.574219 291.085938 L 254.707031 305.230469 L 255.878906 304.554688 L 247.695312 290.441406 Z M 253.957031 308.027344 L 243.792969 290.339844 L 248.4375 287.652344 L 258.671875 305.300781 L 253.957031 308.027344 "/>
<path style=" stroke:none;fill-rule:nonzero;fill:rgb(22.349548%,20.779419%,21.179199%);fill-opacity:1;" d="M 246.574219 291.085938 L 246.105469 291.355469 L 254.507812 305.976562 L 256.625 304.753906 L 247.894531 289.695312 L 245.835938 290.882812 L 246.105469 291.355469 L 246.574219 291.085938 L 246.847656 291.558594 L 247.496094 291.183594 L 255.132812 304.355469 L 254.910156 304.484375 L 247.050781 290.816406 L 246.574219 291.085938 L 246.847656 291.558594 Z M 253.957031 308.027344 L 254.429688 307.753906 L 244.535156 290.535156 L 248.242188 288.398438 L 257.925781 305.101562 L 253.683594 307.550781 L 253.957031 308.027344 L 254.429688 307.753906 L 253.957031 308.027344 L 254.230469 308.496094 L 259.417969 305.5 L 248.640625 286.90625 L 243.046875 290.132812 L 253.757812 308.765625 L 254.230469 308.496094 L 253.957031 308.027344 "/>
<path style=" stroke:none;fill-rule:nonzero;fill:rgb(22.349548%,20.779419%,21.179199%);fill-opacity:1;" d="M 92.222656 89.820312 L 89.816406 92.226562 L 98.761719 101.230469 L 101.226562 98.765625 L 92.222656 89.820312 "/>
<path style=" stroke:none;fill-rule:nonzero;fill:rgb(22.349548%,20.779419%,21.179199%);fill-opacity:1;" d="M 92.222656 89.820312 L 91.835938 89.4375 L 89.050781 92.226562 L 98.761719 102 L 101.996094 98.765625 L 92.21875 89.054688 L 91.835938 89.4375 L 92.222656 89.820312 L 91.835938 90.207031 L 100.453125 98.765625 L 98.761719 100.457031 L 90.585938 92.226562 L 92.609375 90.207031 L 92.222656 89.820312 L 91.835938 90.207031 L 92.222656 89.820312 "/>
<path style=" stroke:none;fill-rule:nonzero;fill:rgb(22.349548%,20.779419%,21.179199%);fill-opacity:1;" d="M 276.34375 273.878906 L 273.875 276.347656 L 282.875 285.285156 L 285.285156 282.882812 L 276.34375 273.878906 "/>
<path style=" stroke:none;fill-rule:nonzero;fill:rgb(22.349548%,20.779419%,21.179199%);fill-opacity:1;" d="M 276.34375 273.878906 L 275.953125 273.492188 L 273.101562 276.347656 L 282.875 286.054688 L 286.050781 282.882812 L 276.34375 273.105469 L 275.953125 273.492188 L 276.34375 273.878906 L 275.953125 274.261719 L 284.511719 282.878906 L 282.875 284.511719 L 274.644531 276.34375 L 276.726562 274.261719 L 276.34375 273.878906 L 275.953125 274.261719 L 276.34375 273.878906 "/>
<path style=" stroke:none;fill-rule:nonzero;fill:rgb(22.349548%,20.779419%,21.179199%);fill-opacity:1;" d="M 70.175781 117.824219 L 68.480469 120.769531 L 84.394531 129.917969 L 86.054688 127.039062 L 70.175781 117.824219 "/>
<path style=" stroke:none;fill-rule:nonzero;fill:rgb(22.349548%,20.779419%,21.179199%);fill-opacity:1;" d="M 70.175781 117.824219 L 69.703125 117.554688 L 67.730469 120.972656 L 84.59375 130.664062 L 86.796875 126.839844 L 69.976562 117.074219 L 69.703125 117.554688 L 70.175781 117.824219 L 69.902344 118.292969 L 85.3125 127.238281 L 84.195312 129.171875 L 69.222656 120.570312 L 70.648438 118.09375 L 70.175781 117.824219 L 69.902344 118.292969 L 70.175781 117.824219 "/>
<path style=" stroke:none;fill-rule:nonzero;fill:rgb(22.349548%,20.779419%,21.179199%);fill-opacity:1;" d="M 69.875 120.394531 L 84.019531 128.523438 L 84.664062 127.410156 L 70.546875 119.222656 Z M 84.769531 131.3125 L 67.082031 121.144531 L 69.804688 116.429688 L 87.449219 126.667969 L 84.769531 131.3125 "/>
<path style=" stroke:none;fill-rule:nonzero;fill:rgb(22.349548%,20.779419%,21.179199%);fill-opacity:1;" d="M 69.875 120.394531 L 69.601562 120.867188 L 84.21875 129.269531 L 85.40625 127.210938 L 70.351562 118.472656 L 69.128906 120.597656 L 69.601562 120.867188 L 69.875 120.394531 L 70.347656 120.667969 L 70.75 119.96875 L 83.917969 127.605469 L 83.820312 127.777344 L 70.148438 119.921875 L 69.875 120.394531 L 70.347656 120.667969 Z M 84.769531 131.3125 L 85.042969 130.835938 L 67.828125 120.945312 L 70.003906 117.175781 L 86.703125 126.867188 L 84.296875 131.039062 L 84.769531 131.3125 L 85.042969 130.835938 L 84.769531 131.3125 L 85.242188 131.582031 L 88.191406 126.46875 L 69.601562 115.683594 L 66.335938 121.347656 L 84.96875 132.058594 L 85.242188 131.582031 L 84.769531 131.3125 "/>
<path style=" stroke:none;fill-rule:nonzero;fill:rgb(22.349548%,20.779419%,21.179199%);fill-opacity:1;" d="M 290.710938 245.191406 L 289.042969 248.070312 L 304.921875 257.28125 L 306.625 254.335938 L 290.710938 245.191406 "/>
<path style=" stroke:none;fill-rule:nonzero;fill:rgb(22.349548%,20.779419%,21.179199%);fill-opacity:1;" d="M 290.710938 245.191406 L 290.234375 244.917969 L 288.296875 248.269531 L 305.117188 258.027344 L 307.375 254.136719 L 290.507812 244.445312 L 290.234375 244.917969 L 290.710938 245.191406 L 290.4375 245.664062 L 305.878906 254.539062 L 304.722656 256.535156 L 289.789062 247.871094 L 291.179688 245.464844 L 290.710938 245.191406 L 290.4375 245.664062 L 290.710938 245.191406 "/>
<path style=" stroke:none;fill-rule:nonzero;fill:rgb(22.349548%,20.779419%,21.179199%);fill-opacity:1;" d="M 290.4375 247.703125 L 304.546875 255.886719 L 305.226562 254.710938 L 291.078125 246.585938 Z M 305.292969 258.675781 L 287.648438 248.441406 L 290.332031 243.796875 L 308.019531 253.960938 L 305.292969 258.675781 "/>
<path style=" stroke:none;fill-rule:nonzero;fill:rgb(22.349548%,20.779419%,21.179199%);fill-opacity:1;" d="M 290.4375 247.703125 L 290.164062 248.171875 L 304.746094 256.628906 L 305.972656 254.511719 L 290.878906 245.839844 L 289.695312 247.898438 L 290.164062 248.171875 L 290.4375 247.703125 L 290.910156 247.972656 L 291.28125 247.332031 L 304.480469 254.914062 L 304.351562 255.136719 L 290.714844 247.226562 L 290.4375 247.703125 L 290.910156 247.972656 Z M 305.292969 258.675781 L 305.566406 258.207031 L 288.394531 248.242188 L 290.53125 244.542969 L 307.273438 254.164062 L 304.820312 258.402344 L 305.292969 258.675781 L 305.566406 258.207031 L 305.292969 258.675781 L 305.765625 258.949219 L 308.765625 253.761719 L 290.128906 243.054688 L 286.902344 248.640625 L 305.488281 259.425781 L 305.765625 258.949219 L 305.292969 258.675781 "/>
<path style=" stroke:none;fill-rule:nonzero;fill:rgb(22.349548%,20.779419%,21.179199%);fill-opacity:1;" d="M 56.128906 150.578125 L 55.25 153.867188 L 67.496094 157.195312 L 68.394531 153.824219 L 56.128906 150.578125 "/>
<path style=" stroke:none;fill-rule:nonzero;fill:rgb(22.349548%,20.779419%,21.179199%);fill-opacity:1;" d="M 56.128906 150.578125 L 55.601562 150.4375 L 54.582031 154.25 L 67.878906 157.863281 L 69.066406 153.433594 L 55.742188 149.914062 L 55.601562 150.4375 L 56.128906 150.578125 L 55.988281 151.109375 L 67.726562 154.210938 L 67.109375 156.519531 L 55.917969 153.480469 L 56.652344 150.71875 L 56.128906 150.578125 L 55.988281 151.109375 L 56.128906 150.578125 "/>
<path style=" stroke:none;fill-rule:nonzero;fill:rgb(22.349548%,20.779419%,21.179199%);fill-opacity:1;" d="M 307.609375 217.917969 L 306.703125 221.285156 L 318.972656 224.527344 L 319.851562 221.246094 L 307.609375 217.917969 "/>
<path style=" stroke:none;fill-rule:nonzero;fill:rgb(22.349548%,20.779419%,21.179199%);fill-opacity:1;" d="M 307.609375 217.917969 L 307.078125 217.777344 L 306.035156 221.671875 L 319.359375 225.195312 L 320.523438 220.859375 L 307.21875 217.25 L 307.078125 217.777344 L 307.609375 217.917969 L 307.460938 218.441406 L 319.183594 221.625 L 318.585938 223.863281 L 307.375 220.898438 L 308.132812 218.058594 L 307.609375 217.917969 L 307.460938 218.441406 L 307.609375 217.917969 "/>
<path style=" stroke:none;fill-rule:nonzero;fill:rgb(22.349548%,20.779419%,21.179199%);fill-opacity:1;" d="M 41.332031 185.738281 L 41.332031 189.375 L 62.5 189.316406 L 62.5 185.792969 L 41.332031 185.738281 "/>
<path style=" stroke:none;fill-rule:nonzero;fill:rgb(22.349548%,20.779419%,21.179199%);fill-opacity:1;" d="M 41.332031 185.738281 L 40.785156 185.738281 L 40.785156 189.921875 L 63.046875 189.859375 L 63.046875 185.25 L 40.785156 185.1875 L 40.785156 185.738281 L 41.332031 185.738281 L 41.328125 186.277344 L 61.957031 186.335938 L 61.957031 188.769531 L 41.878906 188.832031 L 41.875 185.730469 L 41.332031 185.738281 L 41.328125 186.277344 L 41.332031 185.738281 "/>
<path style=" stroke:none;fill-rule:nonzero;fill:rgb(22.349548%,20.779419%,21.179199%);fill-opacity:1;" d="M 41.332031 191.929688 C 40.660156 191.929688 40.007812 191.660156 39.527344 191.183594 C 39.046875 190.707031 38.777344 190.054688 38.777344 189.375 L 38.773438 185.738281 C 38.773438 185.058594 39.042969 184.40625 39.523438 183.925781 C 40.003906 183.453125 40.652344 183.183594 41.332031 183.183594 L 41.335938 183.183594 L 62.507812 183.242188 C 63.917969 183.242188 65.054688 184.386719 65.054688 185.792969 L 65.054688 189.316406 C 65.054688 190.722656 63.917969 191.863281 62.507812 191.871094 L 41.339844 191.929688 L 41.332031 191.929688 "/>
<path style=" stroke:none;fill-rule:nonzero;fill:rgb(22.349548%,20.779419%,21.179199%);fill-opacity:1;" d="M 41.332031 191.929688 L 41.332031 191.382812 C 40.800781 191.382812 40.292969 191.171875 39.914062 190.796875 C 39.539062 190.421875 39.324219 189.910156 39.324219 189.375 L 39.320312 185.738281 C 39.320312 185.195312 39.535156 184.6875 39.914062 184.3125 C 40.289062 183.9375 40.800781 183.726562 41.332031 183.726562 L 41.335938 183.726562 L 62.507812 183.785156 C 63.613281 183.789062 64.507812 184.6875 64.507812 185.792969 L 64.507812 189.316406 C 64.507812 190.421875 63.613281 191.320312 62.503906 191.324219 L 41.335938 191.382812 L 41.332031 191.382812 L 41.332031 192.472656 L 41.339844 192.472656 L 62.507812 192.410156 C 64.21875 192.40625 65.597656 191.019531 65.597656 189.316406 L 65.597656 185.792969 C 65.597656 184.082031 64.21875 182.703125 62.507812 182.699219 L 41.335938 182.636719 L 41.332031 182.636719 C 40.507812 182.636719 39.722656 182.960938 39.140625 183.542969 C 38.558594 184.117188 38.230469 184.910156 38.230469 185.738281 L 38.234375 189.375 C 38.234375 190.199219 38.5625 190.988281 39.144531 191.570312 C 39.726562 192.144531 40.511719 192.472656 41.332031 192.472656 L 41.332031 191.929688 "/>
<path style=" stroke:none;fill-rule:nonzero;fill:rgb(22.349548%,20.779419%,21.179199%);fill-opacity:1;" d="M 312.59375 185.796875 L 312.597656 189.316406 L 333.769531 189.375 L 333.773438 185.738281 L 312.59375 185.796875 "/>
<path style=" stroke:none;fill-rule:nonzero;fill:rgb(22.349548%,20.779419%,21.179199%);fill-opacity:1;" d="M 312.59375 185.796875 L 312.046875 185.796875 L 312.054688 189.859375 L 334.3125 189.921875 L 334.316406 185.1875 L 312.046875 185.25 L 312.046875 185.796875 L 312.59375 185.796875 L 312.597656 186.339844 L 333.226562 186.28125 L 333.222656 188.832031 L 313.144531 188.769531 L 313.140625 185.796875 L 312.59375 185.796875 L 312.597656 186.339844 L 312.59375 185.796875 "/>
<path style=" stroke:none;fill-rule:nonzero;fill:rgb(22.349548%,20.779419%,21.179199%);fill-opacity:1;" d="M 333.769531 191.929688 L 333.761719 191.929688 L 312.589844 191.871094 C 311.183594 191.863281 310.046875 190.722656 310.046875 189.316406 L 310.042969 185.796875 C 310.042969 184.390625 311.179688 183.246094 312.589844 183.242188 L 333.761719 183.183594 C 334.449219 183.195312 335.09375 183.449219 335.574219 183.925781 C 336.050781 184.40625 336.324219 185.058594 336.324219 185.738281 L 336.320312 189.378906 C 336.320312 190.058594 336.050781 190.707031 335.570312 191.1875 C 335.09375 191.660156 334.445312 191.929688 333.769531 191.929688 "/>
<path style=" stroke:none;fill-rule:nonzero;fill:rgb(22.349548%,20.779419%,21.179199%);fill-opacity:1;" d="M 333.769531 191.929688 L 333.769531 191.382812 L 333.761719 191.382812 L 312.59375 191.324219 C 311.484375 191.320312 310.589844 190.421875 310.589844 189.316406 L 310.585938 185.796875 C 310.585938 184.6875 311.480469 183.792969 312.589844 183.789062 L 333.761719 183.726562 L 333.761719 183.183594 L 333.75 183.726562 C 334.316406 183.742188 334.8125 183.941406 335.191406 184.3125 C 335.566406 184.691406 335.78125 185.199219 335.78125 185.738281 L 335.773438 189.375 C 335.773438 189.910156 335.566406 190.421875 335.1875 190.800781 C 334.8125 191.175781 334.300781 191.382812 333.769531 191.382812 L 333.769531 192.472656 C 334.589844 192.472656 335.375 192.152344 335.953125 191.570312 C 336.539062 190.992188 336.867188 190.203125 336.867188 189.378906 L 336.871094 185.738281 C 336.871094 184.910156 336.542969 184.121094 335.957031 183.542969 C 335.371094 182.953125 334.585938 182.65625 333.777344 182.636719 L 333.761719 182.636719 L 312.589844 182.699219 C 310.882812 182.703125 309.496094 184.089844 309.496094 185.796875 L 309.5 189.316406 C 309.503906 191.027344 310.886719 192.40625 312.589844 192.410156 L 333.757812 192.472656 L 333.769531 192.472656 L 333.769531 191.929688 "/>
<path style=" stroke:none;fill-rule:nonzero;fill:rgb(22.349548%,20.779419%,21.179199%);fill-opacity:1;" d="M 221.242188 55.253906 L 224.523438 56.132812 L 221.28125 68.402344 L 217.914062 67.5 L 221.242188 55.253906 "/>
<path style=" stroke:none;fill-rule:nonzero;fill:rgb(22.349548%,20.779419%,21.179199%);fill-opacity:1;" d="M 221.242188 55.253906 L 221.097656 55.78125 L 223.859375 56.523438 L 220.894531 67.730469 L 218.582031 67.113281 L 221.765625 55.394531 L 221.242188 55.253906 L 221.097656 55.78125 L 221.242188 55.253906 L 220.714844 55.109375 L 217.242188 67.882812 L 221.667969 69.070312 L 225.191406 55.75 L 220.855469 54.585938 L 220.714844 55.109375 L 221.242188 55.253906 "/>
<path style=" stroke:none;fill-rule:nonzero;fill:rgb(22.349548%,20.779419%,21.179199%);fill-opacity:1;" d="M 153.820312 306.707031 L 157.191406 307.613281 L 153.859375 319.855469 L 150.574219 318.980469 L 153.820312 306.707031 "/>
<path style=" stroke:none;fill-rule:nonzero;fill:rgb(22.349548%,20.779419%,21.179199%);fill-opacity:1;" d="M 153.820312 306.707031 L 153.675781 307.234375 L 156.515625 307.996094 L 153.472656 319.1875 L 151.238281 318.589844 L 154.347656 306.84375 L 153.820312 306.707031 L 153.675781 307.234375 L 153.820312 306.707031 L 153.289062 306.566406 L 149.910156 319.363281 L 154.242188 320.527344 L 157.859375 307.222656 L 153.429688 306.035156 L 153.289062 306.566406 L 153.820312 306.707031 "/>
<path style=" stroke:none;fill-rule:nonzero;fill:rgb(22.349548%,20.779419%,21.179199%);fill-opacity:1;" d="M 254.332031 68.480469 L 257.277344 70.179688 L 248.066406 86.0625 L 245.191406 84.398438 L 254.332031 68.480469 "/>
<path style=" stroke:none;fill-rule:nonzero;fill:rgb(22.349548%,20.779419%,21.179199%);fill-opacity:1;" d="M 254.332031 68.480469 L 254.058594 68.953125 L 256.53125 70.382812 L 247.867188 85.316406 L 245.933594 84.195312 L 254.804688 68.753906 L 254.332031 68.480469 L 254.058594 68.953125 L 254.332031 68.480469 L 253.859375 68.207031 L 244.445312 84.59375 L 248.265625 86.808594 L 258.023438 69.984375 L 254.132812 67.734375 L 253.859375 68.207031 L 254.332031 68.480469 "/>
<path style=" stroke:none;fill-rule:nonzero;fill:rgb(22.349548%,20.779419%,21.179199%);fill-opacity:1;" d="M 246.582031 84.023438 L 247.695312 84.667969 L 255.878906 70.550781 L 254.707031 69.875 Z M 248.4375 87.453125 L 243.792969 84.769531 L 253.957031 67.085938 L 258.671875 69.808594 L 248.4375 87.453125 "/>
<path style=" stroke:none;fill-rule:nonzero;fill:rgb(22.349548%,20.779419%,21.179199%);fill-opacity:1;" d="M 246.582031 84.023438 L 246.308594 84.492188 L 247.894531 85.414062 L 256.625 70.355469 L 254.507812 69.132812 L 245.835938 84.21875 L 246.308594 84.492188 L 246.582031 84.023438 L 247.054688 84.292969 L 254.910156 70.621094 L 255.132812 70.753906 L 247.496094 83.921875 L 246.851562 83.550781 L 246.582031 84.023438 L 247.054688 84.292969 Z M 248.4375 87.453125 L 248.710938 86.984375 L 244.539062 84.570312 L 254.160156 67.828125 L 257.925781 70.007812 L 247.96875 87.183594 L 248.4375 87.453125 L 248.710938 86.984375 L 248.4375 87.453125 L 248.910156 87.730469 L 259.417969 69.609375 L 253.757812 66.339844 L 243.050781 84.96875 L 248.640625 88.199219 L 248.910156 87.730469 L 248.4375 87.453125 "/>
<path style=" stroke:none;fill-rule:nonzero;fill:rgb(22.349548%,20.779419%,21.179199%);fill-opacity:1;" d="M 127.03125 289.046875 L 129.914062 290.714844 L 120.765625 306.628906 L 117.820312 304.925781 L 127.03125 289.046875 "/>
<path style=" stroke:none;fill-rule:nonzero;fill:rgb(22.349548%,20.779419%,21.179199%);fill-opacity:1;" d="M 127.03125 289.046875 L 126.757812 289.519531 L 129.171875 290.910156 L 120.566406 305.882812 L 118.5625 304.726562 L 127.5 289.320312 L 127.03125 289.046875 L 126.757812 289.519531 L 127.03125 289.046875 L 126.558594 288.773438 L 117.070312 305.121094 L 120.96875 307.375 L 130.660156 290.507812 L 126.832031 288.300781 L 126.558594 288.773438 L 127.03125 289.046875 "/>
<path style=" stroke:none;fill-rule:nonzero;fill:rgb(22.349548%,20.779419%,21.179199%);fill-opacity:1;" d="M 119.21875 304.554688 L 120.390625 305.230469 L 128.519531 291.085938 L 127.402344 290.441406 Z M 121.140625 308.019531 L 116.417969 305.300781 L 126.65625 287.65625 L 131.3125 290.339844 L 121.140625 308.019531 "/>
<path style=" stroke:none;fill-rule:nonzero;fill:rgb(22.349548%,20.779419%,21.179199%);fill-opacity:1;" d="M 119.21875 304.554688 L 118.945312 305.023438 L 120.59375 305.976562 L 129.265625 290.882812 L 127.203125 289.695312 L 118.46875 304.753906 L 118.945312 305.023438 L 119.21875 304.554688 L 119.6875 304.828125 L 127.597656 291.183594 L 127.777344 291.285156 L 120.191406 304.488281 L 119.488281 304.082031 L 119.21875 304.554688 L 119.6875 304.828125 Z M 121.140625 308.019531 L 121.414062 307.546875 L 117.164062 305.101562 L 126.855469 288.398438 L 130.566406 290.535156 L 120.671875 307.75 L 121.140625 308.019531 L 121.414062 307.546875 L 121.140625 308.019531 L 121.613281 308.292969 L 132.050781 290.132812 L 126.457031 286.910156 L 115.671875 305.5 L 121.34375 308.765625 L 121.613281 308.292969 L 121.140625 308.019531 "/>
<path style=" stroke:none;fill-rule:nonzero;fill:rgb(22.349548%,20.779419%,21.179199%);fill-opacity:1;" d="M 282.875 89.820312 L 285.285156 92.226562 L 276.335938 101.230469 L 273.875 98.765625 L 282.875 89.820312 "/>
<path style=" stroke:none;fill-rule:nonzero;fill:rgb(22.349548%,20.779419%,21.179199%);fill-opacity:1;" d="M 282.875 89.820312 L 282.488281 90.207031 L 284.511719 92.226562 L 276.335938 100.457031 L 274.644531 98.765625 L 283.257812 90.207031 L 282.875 89.820312 L 282.488281 90.207031 L 282.875 89.820312 L 282.492188 89.4375 L 273.101562 98.765625 L 276.335938 102 L 286.050781 92.226562 L 282.875 89.054688 L 282.492188 89.4375 L 282.875 89.820312 "/>
<path style=" stroke:none;fill-rule:nonzero;fill:rgb(22.349548%,20.779419%,21.179199%);fill-opacity:1;" d="M 98.761719 273.878906 L 101.230469 276.347656 L 92.222656 285.285156 L 89.816406 282.882812 L 98.761719 273.878906 "/>
<path style=" stroke:none;fill-rule:nonzero;fill:rgb(22.349548%,20.779419%,21.179199%);fill-opacity:1;" d="M 98.761719 273.878906 L 98.375 274.261719 L 100.453125 276.34375 L 92.222656 284.511719 L 90.585938 282.878906 L 99.148438 274.261719 L 98.761719 273.878906 L 98.375 274.261719 L 98.761719 273.878906 L 98.375 273.496094 L 89.050781 282.882812 L 92.21875 286.054688 L 102 276.347656 L 98.761719 273.105469 L 98.375 273.496094 L 98.761719 273.878906 "/>
<path style=" stroke:none;fill-rule:nonzero;fill:rgb(22.349548%,20.779419%,21.179199%);fill-opacity:1;" d="M 304.921875 117.824219 L 306.625 120.769531 L 290.710938 129.917969 L 289.042969 127.039062 L 304.921875 117.824219 "/>
<path style=" stroke:none;fill-rule:nonzero;fill:rgb(22.349548%,20.779419%,21.179199%);fill-opacity:1;" d="M 304.921875 117.824219 L 304.449219 118.097656 L 305.878906 120.570312 L 290.90625 129.171875 L 289.789062 127.238281 L 305.195312 118.292969 L 304.921875 117.824219 L 304.449219 118.097656 L 304.921875 117.824219 L 304.644531 117.351562 L 288.296875 126.839844 L 290.503906 130.660156 L 307.367188 120.972656 L 305.117188 117.082031 L 304.644531 117.351562 L 304.921875 117.824219 "/>
<path style=" stroke:none;fill-rule:nonzero;fill:rgb(22.349548%,20.779419%,21.179199%);fill-opacity:1;" d="M 290.4375 127.410156 L 291.078125 128.523438 L 305.226562 120.394531 L 304.546875 119.222656 Z M 290.332031 131.3125 L 287.648438 126.667969 L 305.292969 116.429688 L 308.019531 121.144531 L 290.332031 131.3125 "/>
<path style=" stroke:none;fill-rule:nonzero;fill:rgb(22.349548%,20.779419%,21.179199%);fill-opacity:1;" d="M 290.4375 127.410156 L 289.96875 127.683594 L 290.878906 129.269531 L 305.972656 120.597656 L 304.746094 118.472656 L 289.695312 127.210938 L 289.96875 127.683594 L 290.4375 127.410156 L 290.714844 127.878906 L 304.351562 119.964844 L 304.484375 120.195312 L 291.28125 127.777344 L 290.910156 127.132812 L 290.4375 127.410156 L 290.714844 127.878906 Z M 290.332031 131.3125 L 290.804688 131.039062 L 288.394531 126.867188 L 305.09375 117.175781 L 307.269531 120.945312 L 290.0625 130.835938 L 290.332031 131.3125 L 290.804688 131.039062 L 290.332031 131.3125 L 290.601562 131.785156 L 308.761719 121.347656 L 305.488281 115.683594 L 286.902344 126.46875 L 290.128906 132.058594 L 290.601562 131.785156 L 290.332031 131.3125 "/>
<path style=" stroke:none;fill-rule:nonzero;fill:rgb(22.349548%,20.779419%,21.179199%);fill-opacity:1;" d="M 84.394531 245.191406 L 86.054688 248.070312 L 70.175781 257.28125 L 68.476562 254.335938 L 84.394531 245.191406 "/>
<path style=" stroke:none;fill-rule:nonzero;fill:rgb(22.349548%,20.779419%,21.179199%);fill-opacity:1;" d="M 84.394531 245.191406 L 83.921875 245.464844 L 85.3125 247.871094 L 70.378906 256.535156 L 69.222656 254.539062 L 84.664062 245.664062 L 84.394531 245.191406 L 83.921875 245.464844 L 84.394531 245.191406 L 84.121094 244.71875 L 67.730469 254.136719 L 69.976562 258.027344 L 86.796875 248.269531 L 84.589844 244.445312 L 84.121094 244.71875 L 84.394531 245.191406 "/>
<path style=" stroke:none;fill-rule:nonzero;fill:rgb(22.349548%,20.779419%,21.179199%);fill-opacity:1;" d="M 69.871094 254.710938 L 70.546875 255.882812 L 84.664062 247.703125 L 84.015625 246.585938 Z M 69.804688 258.679688 L 67.082031 253.960938 L 84.765625 243.796875 L 87.449219 248.441406 L 69.804688 258.679688 "/>
<path style=" stroke:none;fill-rule:nonzero;fill:rgb(22.349548%,20.779419%,21.179199%);fill-opacity:1;" d="M 69.871094 254.710938 L 69.402344 254.984375 L 70.351562 256.628906 L 85.40625 247.898438 L 84.214844 245.839844 L 69.128906 254.511719 L 69.402344 254.984375 L 69.871094 254.710938 L 70.144531 255.183594 L 83.816406 247.332031 L 83.917969 247.5 L 70.75 255.136719 L 70.34375 254.441406 L 69.871094 254.710938 L 70.144531 255.183594 Z M 69.804688 258.679688 L 70.273438 258.40625 L 67.824219 254.164062 L 84.566406 244.542969 L 86.703125 248.242188 L 69.527344 258.207031 L 69.804688 258.679688 L 70.273438 258.40625 L 69.804688 258.679688 L 70.078125 259.152344 L 88.191406 248.640625 L 84.964844 243.054688 L 66.335938 253.757812 L 69.601562 259.425781 L 70.078125 259.152344 L 69.804688 258.679688 "/>
<path style=" stroke:none;fill-rule:nonzero;fill:rgb(22.349548%,20.779419%,21.179199%);fill-opacity:1;" d="M 318.972656 150.578125 L 319.851562 153.867188 L 307.609375 157.195312 L 306.703125 153.824219 L 318.972656 150.578125 "/>
<path style=" stroke:none;fill-rule:nonzero;fill:rgb(22.349548%,20.779419%,21.179199%);fill-opacity:1;" d="M 318.972656 150.578125 L 318.445312 150.71875 L 319.183594 153.480469 L 307.992188 156.519531 L 307.367188 154.210938 L 319.109375 151.109375 L 318.972656 150.578125 L 318.445312 150.71875 L 318.972656 150.578125 L 318.832031 150.050781 L 306.03125 153.433594 L 307.21875 157.863281 L 320.515625 154.25 L 319.359375 149.914062 L 318.832031 150.050781 L 318.972656 150.578125 "/>
<path style=" stroke:none;fill-rule:nonzero;fill:rgb(22.349548%,20.779419%,21.179199%);fill-opacity:1;" d="M 67.492188 217.917969 L 68.394531 221.285156 L 56.128906 224.527344 L 55.25 221.246094 L 67.492188 217.917969 "/>
<path style=" stroke:none;fill-rule:nonzero;fill:rgb(22.349548%,20.779419%,21.179199%);fill-opacity:1;" d="M 67.492188 217.917969 L 66.964844 218.058594 L 67.726562 220.898438 L 56.515625 223.863281 L 55.917969 221.625 L 67.632812 218.441406 L 67.492188 217.917969 L 66.964844 218.058594 L 67.492188 217.917969 L 67.347656 217.390625 L 54.582031 220.859375 L 55.742188 225.195312 L 69.066406 221.671875 L 67.875 217.25 L 67.347656 217.390625 L 67.492188 217.917969 "/>
<path style=" stroke:none;fill-rule:nonzero;fill:rgb(22.349548%,20.779419%,21.179199%);fill-opacity:1;" d="M 198.726562 187.554688 C 198.726562 183.398438 195.351562 180.023438 191.195312 180.023438 C 187.039062 180.023438 183.664062 183.398438 183.664062 187.554688 C 183.664062 191.710938 187.039062 195.085938 191.195312 195.085938 C 195.351562 195.085938 198.726562 191.710938 198.726562 187.554688 "/>
<path style=" stroke:none;fill-rule:nonzero;fill:rgb(22.349548%,20.779419%,21.179199%);fill-opacity:1;" d="M 198.726562 187.554688 L 199.273438 187.554688 C 199.269531 183.09375 195.652344 179.480469 191.195312 179.480469 C 186.738281 179.480469 183.121094 183.09375 183.121094 187.554688 C 183.121094 192.015625 186.738281 195.632812 191.195312 195.632812 C 195.652344 195.632812 199.269531 192.015625 199.269531 187.554688 L 198.179688 187.554688 C 198.175781 189.484375 197.398438 191.230469 196.136719 192.496094 C 194.871094 193.757812 193.125 194.542969 191.195312 194.542969 C 189.265625 194.542969 187.523438 193.757812 186.257812 192.496094 C 184.996094 191.230469 184.210938 189.484375 184.210938 187.554688 C 184.210938 185.625 184.996094 183.882812 186.257812 182.617188 C 187.523438 181.351562 189.265625 180.570312 191.195312 180.570312 C 193.125 180.570312 194.871094 181.351562 196.136719 182.617188 C 197.398438 183.882812 198.175781 185.625 198.175781 187.554688 L 198.726562 187.554688 "/>
</g>
</svg>
