<?xml version="1.0" standalone="no"?>
<!DOCTYPE svg PUBLIC "-//W3C//DTD SVG 20010904//EN"
 "http://www.w3.org/TR/2001/REC-SVG-20010904/DTD/svg10.dtd">
<svg version="1.0" xmlns="http://www.w3.org/2000/svg"
 width="512.000000pt" height="512.000000pt" viewBox="0 0 512.000000 512.000000"
 preserveAspectRatio="xMidYMid meet">

<g transform="translate(0.000000,512.000000) scale(0.100000,-0.100000)"
fill="#000000" stroke="none">
<path d="M2330 5109 c-609 -58 -1179 -330 -1600 -765 -396 -409 -639 -914
-711 -1479 -17 -129 -17 -481 0 -610 97 -758 509 -1418 1146 -1838 134 -88
368 -206 520 -262 404 -149 859 -191 1295 -119 536 89 1043 357 1426 756 382
397 621 902 695 1468 17 122 17 478 0 600 -100 764 -500 1411 -1131 1832 -145
97 -374 214 -534 273 -334 123 -752 178 -1106 144z m120 -855 l0 -645 -117 6
c-254 14 -500 51 -745 112 l-146 36 30 86 c101 288 259 556 435 741 102 108
190 175 298 230 69 35 193 77 233 79 9 1 12 -134 12 -645z m355 608 c338 -118
639 -487 834 -1021 l29 -79 -117 -30 c-226 -60 -507 -102 -768 -117 l-113 -7
0 646 0 646 33 -7 c17 -3 64 -17 102 -31z m757 -180 c136 -64 290 -158 413
-251 99 -74 375 -338 375 -357 0 -20 -263 -160 -404 -215 -43 -16 -80 -29 -81
-27 -2 2 -24 57 -50 123 -120 308 -260 545 -446 755 l-70 80 80 -30 c44 -16
127 -51 183 -78z m-1817 36 c-179 -198 -353 -493 -460 -783 -20 -55 -38 -101
-39 -103 -3 -2 -101 38 -201 83 -92 41 -275 147 -275 159 0 6 64 74 142 151
206 202 373 322 613 440 116 57 246 112 268 114 5 1 -17 -27 -48 -61z m-871
-943 c67 -34 163 -80 214 -101 60 -25 92 -44 92 -54 0 -8 -11 -61 -25 -117
-56 -232 -105 -616 -105 -825 l0 -98 -421 0 -421 0 7 98 c16 244 63 476 140
687 48 131 150 337 225 453 l60 93 57 -37 c31 -20 111 -64 177 -99z m3681 20
c203 -325 323 -707 350 -1112 l7 -103 -425 0 -424 0 -7 153 c-13 275 -52 560
-110 800 l-24 98 24 9 c161 61 364 161 474 232 42 28 58 34 67 25 6 -7 37 -52
68 -102z m-3030 -266 c231 -61 538 -108 828 -125 l97 -6 0 -409 0 -409 -595 0
-595 0 0 104 c0 270 94 876 136 876 8 0 67 -14 129 -31z m2228 -86 c53 -235
80 -446 93 -715 l7 -148 -592 0 -591 0 0 409 0 409 108 6 c267 15 602 66 812
125 58 16 112 30 121 30 12 1 21 -27 42 -116z m-2699 -1135 c22 -245 30 -320
52 -448 14 -80 36 -191 49 -248 14 -57 25 -109 25 -116 0 -7 -42 -30 -92 -51
-124 -51 -254 -116 -361 -181 l-88 -54 -60 93 c-186 287 -312 644 -355 1010
l-6 57 415 0 415 0 6 -62z m1396 -262 l0 -324 -97 -6 c-297 -18 -602 -65 -845
-130 l-126 -34 -21 92 c-45 193 -83 447 -95 639 l-6 87 595 0 595 0 0 -324z
m1394 267 c-13 -162 -38 -369 -55 -463 -29 -163 -61 -290 -71 -290 -5 0 -61
14 -123 31 -231 61 -538 108 -827 125 l-98 6 0 324 0 324 589 0 590 0 -5 -57z
m1051 0 c-41 -363 -167 -722 -354 -1011 l-61 -93 -56 36 c-117 75 -319 174
-478 235 l-23 9 23 98 c48 202 104 570 104 693 0 25 3 55 6 68 l6 22 420 0
419 0 -6 -57z m-2445 -1449 l0 -646 -32 7 c-18 3 -62 15 -98 27 -327 101 -640
470 -835 983 -25 65 -44 119 -42 120 1 1 56 16 122 33 159 41 358 77 530 97
130 14 184 18 308 23 l47 2 0 -646z m575 620 c174 -19 374 -56 527 -96 l117
-30 -29 -77 c-173 -470 -420 -806 -710 -968 -58 -32 -172 -76 -227 -86 l-33
-7 0 646 0 645 108 -6 c59 -3 170 -13 247 -21z m-1760 -246 c95 -292 306 -654
499 -855 22 -24 38 -43 34 -43 -19 0 -161 60 -273 115 -241 119 -457 277 -647
474 -60 61 -108 115 -108 119 0 13 202 125 315 174 55 24 111 49 125 55 37 17
37 17 55 -39z m2682 22 c131 -51 402 -193 403 -212 0 -17 -221 -236 -315 -311
-193 -156 -443 -300 -654 -377 l-84 -31 44 48 c201 216 373 508 491 831 16 45
31 82 33 82 2 0 39 -14 82 -30z"/>
</g>
</svg>
